<?xml version="1.0" standalone="no"?><svg xmlns="http://www.w3.org/2000/svg" viewBox="0 0 1440 320"><path fill="#f1f2f6" fill-opacity="1" d="M0,160L24,165.3C48,171,96,181,144,197.3C192,213,240,235,288,213.3C336,192,384,128,432,128C480,128,528,192,576,218.7C624,245,672,235,720,224C768,213,816,203,864,218.7C912,235,960,277,1008,272C1056,267,1104,213,1152,192C1200,171,1248,181,1296,170.7C1344,160,1392,128,1416,112L1440,96L1440,0L1416,0C1392,0,1344,0,1296,0C1248,0,1200,0,1152,0C1104,0,1056,0,1008,0C960,0,912,0,864,0C816,0,768,0,720,0C672,0,624,0,576,0C528,0,480,0,432,0C384,0,336,0,288,0C240,0,192,0,144,0C96,0,48,0,24,0L0,0Z"></path></svg>